<svg height="75" viewBox="0 0 75 75" width="75" xmlns="http://www.w3.org/2000/svg"><g fill="none" fill-rule="evenodd"><path d="m0 0h75v75h-75z" fill="#fff" opacity="0"/><path d="m69.375 12.1875v50.25h-62.8125v-50.25zm-3.140625 3.140625h-56.53125v43.96875h56.53125zm-28.265625 20.5616719 2.2895156 2.2675312 3.140625-.8197031.8511094 3.1155 3.1123594.8448281-.8228438 3.140625 2.2738125 2.2957969-2.2675312 2.2895156.8228437 3.140625-3.1186406.8511094-.8385469 3.1186406-3.140625-.8228437-2.2957968 2.2738125-2.2957969-2.2738125-3.140625.8228437-.8511094-3.1186406-3.1123594-.8448281.8228438-3.140625-2.2738125-2.2957969 2.2738125-2.2957969-.829125-3.1343437 3.1186406-.8511094.8448281-3.1123594 3.140625.8197032zm0 4.4157187-1.3661719 1.3598907-1.8466875-.4836563-.5056406 1.8435469-1.8466875.5056406.4836563 1.8498281-1.3473282 1.3536094 1.3473282 1.3661719-.4836563 1.8466875 1.8435469.5056406.5056406 1.8466875 1.8498281-.4836562 1.3661719 1.3473281 1.3661719-1.3473281 1.8466875.4836562.5056406-1.8435469 1.8466875-.5056406-.4836562-1.8498281 1.3473281-1.3661719-1.3473281-1.3661719.4836562-1.8466875-1.8435469-.5056406-.5056406-1.8466875-1.8498281.4836563zm17.8619803-21.5070548c.8140393-.7376663 1.9129957-1.0769001 3.0011916-.9264296 1.1517661-.004702 2.2904624.2440528 3.3353437.728625l-.628125 1.9377657c-.7686447-.3443383-1.6011584-.5230398-2.4434062-.5244844-1.080375 0-1.8247031.3737344-1.8247031 1.3630312 0 2.3115 5.703375 1.3975782 5.703375 5.8164375 0 2.1419063-1.5012188 3.9320625-4.6418438 3.9320625-1.3736027.0224211-2.7295196-.311959-3.9352031-.9704531l.6720937-1.9754531c.9569778.4989413 2.0175287.766768 3.0966563.7820156 1.3944375 0 2.0319844-.5558906 2.0225625-1.5451875 0-2.5815937-5.5746094-1.6048594-5.5746094-5.7222187-.0428829-1.0977125.4026284-2.1580448 1.2166678-2.8957111zm-24.4070428-.6940233-.0219844 7.9771875c0 3.140625-1.2845156 5.025-4.6198593 5.025-3.5080782 0-4.6072969-1.95975-4.6072969-4.8648281v-8.1216563h2.738625v8.4796875c0 1.4698125.4302656 2.5125 1.884375 2.5125 1.3630312 0 1.9032187-.8197031 1.9032187-2.5533281v-8.4545625zm4.4502656.05025 1.9189219 3.4264219c.8034005 1.3643232 1.5320533 2.7713046 2.1827344 4.2147187h.0910781v-7.6411406h2.7040781v12.788625h-2.6663906l-3.4107187-6.28125c-.2386875-.45225-.5025-.9735937-.7631719-1.5703125-.0376875 0-.0565313.0188438-.0973594.0188438v7.8295781h-2.6601094v-12.7854844zm-14.7044062-.0219844v1.9566094h-4.6575469v3.4295625h3.8409844v1.9566094h-3.8409844l.0188437 5.4646875h-2.7794531v-12.8074688zm26.8554844-.0188437c4.2335625 0 5.7065156 2.9459062 5.7065156 6.3754687.1964193 1.6423368-.321897 3.2899428-1.4232037 4.5240311-1.1013067 1.2340884-2.6795458 1.9358139-4.3335619 1.9268982h-3.4546875v-12.826398zm-.1695938 1.9252031h-.5747344v8.9445h.5747344c1.1777344 0 3.0212813-.7443281 3.0212813-4.396875 0-3.7499062-1.7147813-4.547625-3.0212813-4.547625z" fill="#000"/></g></svg>