<?xml version="1.0" encoding="UTF-8"?>
<svg width="75px" height="75px" viewBox="0 0 75 75" version="1.1" xmlns="http://www.w3.org/2000/svg" xmlns:xlink="http://www.w3.org/1999/xlink">
    <title>piggy-bank-icon</title>
    <g id="piggy-bank-icon" stroke="none" stroke-width="1" fill="none" fill-rule="evenodd">
        <g id="icons/finance/cashflow-copy">
            <g id="Group" fill="#FFFFFF" opacity="0">
                <g id="icon-bounding-box">
                    <rect id="Ø-library-elements/Icons/icon-bounding-box" x="0" y="0" width="75" height="75"></rect>
                </g>
            </g>
            <path d="M59.375,28.125 L59.375,12.5 L46.875,12.5 L46.875,18.75 L37.5,9.375 L6.25,40.625 L15.625,40.625 L15.625,65.625 L59.375,65.625 L59.375,40.625 L68.75,40.625 L59.375,28.125 Z M42.1875,62.5 L32.8125,62.5 L32.8125,43.75 L42.1875,43.75 L42.1875,62.5 Z M56.25,37.5 L56.25,62.5 L45.3125,62.5 L45.3125,40.625 L29.6875,40.625 L29.6875,62.5 L18.75,62.5 L18.75,37.5 L13.79375,37.5 L37.5,13.79375 L44.665625,20.959375 L50,26.29375 L50,15.625 L56.25,15.625 L56.25,29.165625 L56.875,30 L62.5,37.5 L56.25,37.5 Z" id="icon" fill="#000000"></path>
        </g>
    </g>
</svg>